<?xml version="1.0" encoding="utf-8"?>
<!-- Generator: Adobe Illustrator 19.2.0, SVG Export Plug-In . SVG Version: 6.00 Build 0)  -->
<svg version="1.1" id="Слой_1" xmlns="http://www.w3.org/2000/svg" xmlns:xlink="http://www.w3.org/1999/xlink" x="0px" y="0px"
	 viewBox="0 0 1792 1792" style="enable-background:new 0 0 1792 1792;" xml:space="preserve">
<style type="text/css">
	.st0{fill:#8D8D8D;}
</style>
<path class="st0" d="M1152,1500c-28-160.7-74.7-326.7-140-498h-2l-2,1c-10.7,4-25,9.5-43,16.5s-51.7,23.3-101,49s-95,53-137,82
	s-85.7,67.2-131,114.5s-79.7,96.7-103,148l-15-11c122.7,100,262,150,418,150C984,1552,1069.3,1534.7,1152,1500z M967,893
	c-14-32.7-31.7-69.7-53-111c-207.3,62-431.7,93-673,93c-0.7,4.7-1,11.7-1,21c0,82.7,14.7,161.5,44,236.5s70.7,142.2,124,201.5
	c33.3-59.3,74.5-114.8,123.5-166.5S628,1074.3,674,1043c46-31.3,89.5-58.3,130.5-81s74.2-38.7,99.5-48l37-13c2.7-0.7,7-1.8,13-3.5
	S964.3,894.3,967,893z M860,681c-80-142-161.3-268-244-378c-92,43.3-170,105.3-234,186S275.3,660.3,254,761
	C455.3,761,657.3,734.3,860,681z M1544,1000c-140-40-276.3-49.7-409-29c58,159.3,100.7,315.7,128,469c74-50,135.7-113.2,185-189.5
	S1529.3,1090.7,1544,1000z M739,259c-0.7,0-1.3,0.3-2,1C737.7,259.3,738.3,259,739,259z M1329,404c-123.3-109.3-267.7-164-433-164
	c-50.7,0-102.3,6.3-155,19c87.3,113.3,169.3,240.7,246,382c46-17.3,89.3-37.5,130-60.5s72.8-43.5,96.5-61.5s45.5-37,65.5-57
	s32.5-33.5,37.5-40.5L1329,404z M1552,889c-2-154.7-51.7-291.3-149-410l-1,1c-6,8-12.3,16.2-19,24.5c-6.7,8.3-21.2,23.2-43.5,44.5
	s-46,41.5-71,60.5s-58.3,40.7-100,65S1083,720.3,1037,739c16.7,35.3,31.3,67,44,95c1.3,3.3,3.5,9,6.5,17s5.5,13.7,7.5,17
	c24-3.3,48.8-5.7,74.5-7s50.2-2,73.5-2s46.3,0.5,69,1.5s44,2.3,64,4s38.8,3.5,56.5,5.5s33.7,4.2,48,6.5s26.5,4.3,36.5,6
	s18.3,3.2,25,4.5L1552,889z M1664,896c0,139.3-34.3,267.8-103,385.5s-161.8,210.8-279.5,279.5s-246.2,103-385.5,103
	s-267.8-34.3-385.5-103S299.7,1399.2,231,1281.5S128,1035.3,128,896s34.3-267.8,103-385.5S392.8,299.7,510.5,231S756.7,128,896,128
	s267.8,34.3,385.5,103s210.8,161.8,279.5,279.5S1664,756.7,1664,896z"/>
</svg>
