<?xml version="1.0" encoding="utf-8"?>
<!-- Generator: Adobe Illustrator 19.2.0, SVG Export Plug-In . SVG Version: 6.00 Build 0)  -->
<svg version="1.1" id="Слой_1" xmlns="http://www.w3.org/2000/svg" xmlns:xlink="http://www.w3.org/1999/xlink" x="0px" y="0px"
	 viewBox="0 0 1792 1792" style="enable-background:new 0 0 1792 1792;" xml:space="preserve">
<style type="text/css">
	.st0{fill:#8D8D8D;}
</style>
<path class="st0" d="M896,128c139.3,0,267.8,34.3,385.5,103s210.8,161.8,279.5,279.5s103,246.2,103,385.5
	c0,167.3-48.8,317.8-146.5,451.5S1293.7,1573.7,1139,1625c-18,3.3-31.3,1-40-7s-13-18-13-30c0-2,0.2-27.5,0.5-76.5
	s0.5-93.8,0.5-134.5c0-64.7-17.3-112-52-142c38-4,72.2-10,102.5-18s61.7-21,94-39s59.3-40.2,81-66.5s39.3-61.3,53-105
	c13.7-43.7,20.5-93.8,20.5-150.5c0-79.3-26.3-148-79-206c24.7-60.7,22-128.7-8-204c-18.7-6-45.7-2.3-81,11s-66,28-92,44l-38,24
	c-62-17.3-126-26-192-26s-130,8.7-192,26c-10.7-7.3-24.8-16.3-42.5-27S616,474.5,578,459.5S511.7,440,493,446
	c-30,75.3-32.7,143.3-8,204c-52.7,58-79,126.7-79,206c0,56.7,6.8,106.7,20.5,150c13.7,43.3,31.2,78.3,52.5,105s48.2,49,80.5,67
	s63.7,31,94,39s64.5,14,102.5,18c-26,24-42.3,58.3-49,103c-14,6.7-29,11.7-45,15s-35,5-57,5s-43.8-7.2-65.5-21.5
	s-40.2-35.2-55.5-62.5c-12.7-21.3-28.8-38.7-48.5-52s-36.2-21.3-49.5-24l-20-3c-14,0-23.7,1.5-29,4.5s-7,6.8-5,11.5s5,9.3,9,14
	s8.3,8.7,13,12l7,5c14.7,6.7,29.2,19.3,43.5,38s24.8,35.7,31.5,51l10,23c8.7,25.3,23.3,45.8,44,61.5s43,25.7,67,30s47.2,6.7,69.5,7
	s40.8-0.8,55.5-3.5l23-4c0,25.3,0.2,54.8,0.5,88.5s0.5,51.8,0.5,54.5c0,12-4.3,22-13,30s-22,10.3-40,7
	c-154.7-51.3-280.8-143.8-378.5-277.5S128,1063.3,128,896c0-139.3,34.3-267.8,103-385.5S392.8,299.7,510.5,231S756.7,128,896,128z
	 M419,1231c2-4.7-0.3-8.7-7-12c-6.7-2-11-1.3-13,2c-2,4.7,0.3,8.7,7,12C412,1237,416.3,1236.3,419,1231z M450,1265
	c4.7-3.3,4-8.7-2-16c-6.7-6-12-7-16-3c-4.7,3.3-4,8.7,2,16C440.7,1268.7,446,1269.7,450,1265z M480,1310c6-4.7,6-11,0-19
	c-5.3-8.7-11-10.7-17-6c-6,3.3-6,9.3,0,18S474.7,1314,480,1310z M522,1352c5.3-5.3,4-11.7-4-19c-8-8-14.7-9-20-3
	c-6,5.3-4.7,11.7,4,19C510,1357,516.7,1358,522,1352z M579,1377c2-7.3-2.3-12.7-13-16c-10-2.7-16.3-0.3-19,7s1.7,12.3,13,15
	C570,1387,576.3,1385,579,1377z M642,1382c0-8.7-5.7-12.3-17-11c-10.7,0-16,3.7-16,11c0,8.7,5.7,12.3,17,11
	C636.7,1393,642,1389.3,642,1382z M700,1372c-1.3-7.3-7.3-10.3-18-9c-10.7,2-15.3,7-14,15s7.3,10.7,18,8S701.3,1378.7,700,1372z"/>
</svg>
