<?xml version="1.0" encoding="utf-8"?>
<!-- Generator: Adobe Illustrator 19.2.0, SVG Export Plug-In . SVG Version: 6.00 Build 0)  -->
<svg version="1.1" id="Слой_1" xmlns="http://www.w3.org/2000/svg" xmlns:xlink="http://www.w3.org/1999/xlink" x="0px" y="0px"
	 viewBox="0 0 1792 1792" style="enable-background:new 0 0 1792 1792;" xml:space="preserve">
<style type="text/css">
	.st0{fill:#8D8D8D;stroke:#1E0707;stroke-miterlimit:10;}
</style>
<path class="st0" d="M1684,408c-44.7,65.3-98.7,121-162,167c0.7,9.3,1,23.3,1,42c0,86.7-12.7,173.2-38,259.5
	s-63.8,169.2-115.5,248.5s-113.2,149.5-184.5,210.5s-157.3,109.7-258,146S718.7,1536,604,1536c-180.7,0-346-48.3-496-145
	c23.3,2.7,49.3,4,78,4c150,0,283.7-46,401-138c-70-1.3-132.7-22.8-188-64.5s-93.3-94.8-114-159.5c22,3.3,42.3,5,61,5
	c28.7,0,57-3.7,85-11c-74.7-15.3-136.5-52.5-185.5-111.5S172,788,172,710v-4c45.3,25.3,94,39,146,41c-44-29.3-79-67.7-105-115
	s-39-98.7-39-154c0-58.7,14.7-113,44-163c80.7,99.3,178.8,178.8,294.5,238.5S752,646.3,884,653c-5.3-25.3-8-50-8-74
	c0-89.3,31.5-165.5,94.5-228.5S1109.7,256,1199,256c93.3,0,172,34,236,102c72.7-14,141-40,205-78c-24.7,76.7-72,136-142,178
	C1560,451.3,1622,434.7,1684,408z"/>
</svg>
