<svg xmlns="http://www.w3.org/2000/svg" width="612" height="612" viewBox="0 -30 612 612">
<path fill="#999999" d="M61.2,122.4h489.6c33.8,0,61.2-27.4,61.2-61.2S584.6,0,550.8,0H61.2C27.4,0,0,27.4,0,61.2
	S27.4,122.4,61.2,122.4z M550.8,214.8H61.2C27.4,214.8,0,242.2,0,276c0,33.8,27.4,61.2,61.2,61.2h489.6c33.8,0,61.2-27.4,61.2-61.2
	C612,242.2,584.6,214.8,550.8,214.8z M550.8,430.6H61.2C27.4,430.6,0,458,0,491.8C0,525.6,27.4,553,61.2,553h489.6
	c33.8,0,61.2-27.4,61.2-61.2C612,458,584.6,430.6,550.8,430.6z"/>
</svg>
